<svg width="25" height="12" viewBox="0 0 25 12" fill="none" xmlns="http://www.w3.org/2000/svg">
<path d="M2.54 12L2.5 11.96C3.08667 11.28 3.56667 10.6733 3.94 10.14C4.31333 9.60667 4.60667 9.1 4.82 8.62L4.8 8.58H1.6C1.22667 8.20667 0.926667 7.63333 0.7 6.86C0.473333 6.08667 0.36 5.26 0.36 4.38V0.92H3.72V3.78C3.72 4.71333 3.84667 5.52667 4.1 6.22C4.35333 6.9 4.70667 7.41333 5.16 7.76C5.28 7.37333 5.36667 6.96667 5.42 6.54C5.48667 6.11333 5.52 5.63333 5.52 5.1V0.92H8.92V5.58C8.92 6.36667 8.83333 7.16 8.66 7.96C8.48667 8.76 8.23333 9.50667 7.9 10.2C7.58 10.8933 7.2 11.4933 6.76 12H2.54ZM9.75359 12V11.96C10.6869 10.9333 11.1536 10 11.1536 9.16C11.1536 8.93333 11.1203 8.70667 11.0536 8.48C11.0003 8.25333 10.8936 7.98 10.7336 7.66C10.5869 7.34 10.3803 6.92667 10.1136 6.42C9.68693 5.60667 9.47359 4.83333 9.47359 4.1C9.47359 3.60667 9.58693 3.08 9.81359 2.52C10.0403 1.94667 10.3736 1.41333 10.8136 0.92H14.5536V0.959999C14.0603 1.50667 13.7069 2 13.4936 2.44C13.2803 2.86667 13.1736 3.30667 13.1736 3.76C13.1736 4.09333 13.2336 4.42 13.3536 4.74C13.4736 5.06 13.6669 5.47333 13.9336 5.98C14.2936 6.63333 14.5403 7.16667 14.6736 7.58C14.8203 7.98 14.8936 8.39333 14.8936 8.82C14.8936 9.39333 14.8003 9.93333 14.6136 10.44C14.4269 10.9333 14.1203 11.4533 13.6936 12H9.75359ZM15.6464 12V0.92H22.9264C23.1931 1.09333 23.4331 1.37333 23.6464 1.76C23.8731 2.14667 24.0531 2.58 24.1864 3.06C24.3331 3.54 24.4064 4.00667 24.4064 4.46C24.4064 5.24667 24.2731 6 24.0064 6.72C23.7531 7.44 23.3931 8.06 22.9264 8.58H19.1064V12H15.6464ZM19.1064 7.82C20.3331 7.00667 20.9464 5.90667 20.9464 4.52C20.9464 3.81333 20.7731 3.2 20.4264 2.68C20.0931 2.16 19.6531 1.82667 19.1064 1.68V7.82Z" fill="black"/>
</svg>
